<svg width="88" height="57" viewBox="0 0 88 57" fill="none" xmlns="http://www.w3.org/2000/svg">
<g clip-path="url(#clip0_1777_1329)">
<path d="M13.4474 13.2956L43.2444 10.9835C43.5079 10.963 43.6395 10.9528 43.7411 10.9978C43.8303 11.0373 43.9039 11.1054 43.9502 11.1913C44.0029 11.289 44.0029 11.4211 44.0029 11.6853V47.0796C44.0029 47.539 44.0029 47.7687 43.916 47.9495C43.8396 48.1086 43.717 48.241 43.5643 48.3296C43.3909 48.4301 43.1619 48.4479 42.7038 48.4834L13.4474 50.7536V13.2956Z" fill="url(#paint0_linear_1777_1329)"/>
<path d="M14.6644 46.0103L42.7753 43.6394V46.0103L14.6644 48.3813V46.0103Z" fill="#5B5249"/>
<path d="M13.4444 13.2934L43.6509 10.9495C43.7421 10.9424 43.7633 10.8182 43.6796 10.7813L31.3653 5.35212C30.8336 5.11772 30.2522 5.01858 29.673 5.06353L15.2777 6.18053L7.63888 6.77327L3.81946 7.06964L1.90974 7.21783L0.954882 7.29192L0.477457 7.32896L0.45781 7.33049C0.338146 7.33977 0.310342 7.50283 0.420166 7.55124L0.840303 7.73647L1.68057 8.10694L3.36113 8.84785L6.72222 10.3297L13.4444 13.2934Z" fill="url(#paint1_linear_1777_1329)"/>
<path d="M13.4444 13.2943L6.72219 10.3306L3.3611 8.8488L1.68054 8.10787L0.840273 7.73741L0.420137 7.55218L0.338979 7.5164C0.179326 7.44602 0 7.56293 0 7.73741V8.10787V8.8488V10.3306V13.2943V19.2217V44.2512C0 44.5999 0.205913 44.9157 0.524995 45.0565L13.4444 50.7523V13.2943Z" fill="url(#paint2_linear_1777_1329)"/>
<path d="M5.03937 9.59448L6.71992 10.3354L8.40047 11.0763V18.1892L6.71992 17.4483L5.03937 16.7074V9.59448Z" fill="#E8BE97"/>
<path d="M5.03937 9.58359L6.71992 10.3245L8.40047 11.0654L38.4975 8.5463L36.817 7.80538L35.1365 7.06445L5.03937 9.58359Z" fill="#FEDCBD"/>
<path d="M5.03937 39.9338L6.71992 40.6748L8.40047 41.4157V48.5285L6.71992 47.7877L5.03937 47.0467V39.9338Z" fill="#E8BE97"/>
<path d="M7.81264 15.8595C7.69571 16.1667 7.08761 16.2317 6.4544 16.0049C5.82119 15.7781 5.40266 15.3453 5.51959 15.0381C5.63651 14.7311 6.24462 14.666 6.87782 14.8929C7.51104 15.1196 7.92957 15.5525 7.81264 15.8595Z" fill="#111111"/>
<path d="M7.81264 46.2058C7.69571 46.5129 7.08761 46.5779 6.4544 46.3512C5.82119 46.1243 5.40266 45.6915 5.51959 45.3844C5.63651 45.0773 6.24462 45.0122 6.87782 45.239C7.51104 45.4659 7.92957 45.8987 7.81264 46.2058Z" fill="#111111"/>
<path d="M7.81264 13.2092C7.69571 13.5163 7.08761 13.5813 6.4544 13.3545C5.82119 13.1277 5.40266 12.6949 5.51959 12.3878C5.63651 12.0807 6.24462 12.0156 6.87782 12.2425C7.51104 12.4693 7.92957 12.9021 7.81264 13.2092Z" fill="#111111"/>
<path d="M7.81264 43.5554C7.69571 43.8624 7.08761 43.9275 6.4544 43.7007C5.82119 43.4739 5.40266 43.041 5.51959 42.734C5.63651 42.4269 6.24462 42.3618 6.87782 42.5886C7.51104 42.8155 7.92957 43.2483 7.81264 43.5554Z" fill="#111111"/>
<path d="M11.4114 9.88147C11.6584 10.1045 11.3125 10.3172 10.6388 10.3566C9.96494 10.396 9.21843 10.2472 8.97133 10.0242C8.72427 9.80119 9.07015 9.58846 9.74397 9.54905C10.4178 9.50964 11.1643 9.65847 11.4114 9.88147Z" fill="#111111"/>
<path d="M35.5426 7.82923C35.7897 8.05223 35.4438 8.26496 34.7699 8.30438C34.0962 8.34379 33.3497 8.19496 33.1026 7.97195C32.8555 7.74895 33.2014 7.53622 33.8752 7.4968C34.549 7.4574 35.2956 7.60623 35.5426 7.82923Z" fill="#111111"/>
<path d="M30.6545 8.27967C30.9016 8.50267 30.5556 8.7154 29.8819 8.75482C29.2081 8.79422 28.4616 8.64539 28.2145 8.42239C27.9674 8.19939 28.3133 7.98666 28.9871 7.94724C29.6609 7.90784 30.4074 8.05667 30.6545 8.27967Z" fill="#111111"/>
<path d="M25.7664 8.6886C26.0134 8.91161 25.6675 9.12434 24.9938 9.16375C24.32 9.20316 23.5735 9.05433 23.3264 8.83132C23.0793 8.60832 23.4252 8.39559 24.099 8.35618C24.7728 8.31677 25.5193 8.4656 25.7664 8.6886Z" fill="#111111"/>
<path d="M20.8783 9.13563C21.1253 9.35863 20.7794 9.57136 20.1056 9.61077C19.4318 9.65018 18.6853 9.50135 18.4382 9.27835C18.1912 9.05534 18.537 8.84261 19.2108 8.8032C19.8847 8.76379 20.6312 8.91262 20.8783 9.13563Z" fill="#111111"/>
<path d="M15.9901 9.48963C16.2372 9.71263 15.8913 9.92536 15.2175 9.96478C14.5437 10.0042 13.7972 9.85535 13.5501 9.63235C13.3031 9.40935 13.649 9.19662 14.3227 9.1572C14.9965 9.1178 15.743 9.26663 15.9901 9.48963Z" fill="#111111"/>
<path d="M26.2455 33.5864V24.2857L27.9049 24.1785V32.0804L32.1564 31.8055V33.2042L26.2455 33.5864Z" fill="#5B5249"/>
</g>
<defs>
<linearGradient id="paint0_linear_1777_1329" x1="28.7252" y1="10.9246" x2="31.4334" y2="49.1254" gradientUnits="userSpaceOnUse">
<stop offset="0.0247017" stop-color="#E8BE97"/>
<stop offset="0.0523978" stop-color="#DAAE86"/>
<stop offset="1" stop-color="#DAAE86"/>
</linearGradient>
<linearGradient id="paint1_linear_1777_1329" x1="8.39972" y1="11.0936" x2="11.0622" y2="5.21163" gradientUnits="userSpaceOnUse">
<stop stop-color="#C49972"/>
<stop offset="0.0677083" stop-color="#E8BE97"/>
<stop offset="1" stop-color="#E8BE97"/>
</linearGradient>
<linearGradient id="paint2_linear_1777_1329" x1="-0.000390896" y1="44.8464" x2="13.5998" y2="44.8464" gradientUnits="userSpaceOnUse">
<stop stop-color="#C49972"/>
<stop offset="0.947917" stop-color="#C49972"/>
<stop offset="1" stop-color="#DAAE86"/>
</linearGradient>
<clipPath id="clip0_1777_1329">
<rect width="45" height="46" fill="white" transform="translate(0 5)"/>
</clipPath>
</defs>
</svg>
