<svg width="88" height="57" viewBox="0 0 88 57" fill="none" xmlns="http://www.w3.org/2000/svg">
<g clip-path="url(#clip0_1777_968)">
<path d="M15.2812 18.855L49.1387 16.1106C49.4389 16.0863 49.589 16.0741 49.7047 16.1251C49.8064 16.1698 49.8903 16.2472 49.9432 16.345C50.0033 16.4562 50.0033 16.6068 50.0033 16.908V42.7099C50.0033 43.2303 50.0033 43.4905 49.9051 43.6955C49.8186 43.876 49.6799 44.0263 49.507 44.1271C49.3106 44.2416 49.0513 44.2626 48.5326 44.3047L15.2812 47V18.855Z" fill="url(#paint0_linear_1777_968)"/>
<path d="M27.154 35.1082V24.5393L29.3171 24.3932L32.4886 32.3162L32.6128 32.3078L35.777 23.9569L37.94 23.8108V34.3796L36.2446 34.4941V26.9795L35.3239 27.0417L37.1946 24.1541L33.1901 34.7005L31.9039 34.7873L27.9067 24.7815L29.7774 27.4163L28.8494 27.479V34.9937L27.154 35.1082Z" fill="#5B5249"/>
<path d="M16.6641 41.3672L48.6083 38.5527V41.3672L16.6641 44.1817V41.3672Z" fill="#5B5249"/>
<path d="M15.2777 18.8507L49.6193 16.067C49.7219 16.0587 49.7465 15.9196 49.6531 15.8765L35.6739 9.43834C35.0499 9.15092 34.3623 9.0291 33.6775 9.08461L17.361 10.4072L8.68052 11.1108L4.34027 11.4626L2.17014 11.6385L1.08507 11.7265L0.542538 11.7705L0.523917 11.772C0.382672 11.7834 0.348721 11.975 0.477434 12.0343L0.954863 12.2542L1.90972 12.694L3.81944 13.5735L7.63886 15.3326L15.2777 18.8507Z" fill="url(#paint1_linear_1777_968)"/>
<path d="M15.2777 18.853L7.63885 15.3349L3.81943 13.5759L1.90971 12.6963L0.954856 12.2566L0.477428 12.0367L0.399438 12.0008C0.212846 11.9148 0 12.0511 0 12.2566V12.6963V13.5759V15.3349V18.853V25.8893V39.3213C0 39.7117 0.227129 40.0663 0.581678 40.2296L15.2777 46.998V18.853Z" fill="url(#paint2_linear_1777_968)"/>
<path d="M5.72656 14.4585L7.63628 15.338L9.54599 16.2175V24.661L7.63628 23.7815L5.72656 22.902V14.4585Z" fill="#E8BE97"/>
<path d="M5.72656 14.4489L7.63628 15.3284L9.54599 16.2079L43.7472 13.2175L41.8375 12.338L39.9278 11.4585L5.72656 14.4489Z" fill="#FEDCBD"/>
<path d="M5.72656 34.1538L7.63628 35.0333L9.54599 35.9129V44.3563L7.63628 43.4768L5.72656 42.5973V34.1538Z" fill="#E8BE97"/>
<path d="M8.878 21.8951C8.74513 22.2596 8.0541 22.3368 7.33455 22.0676C6.61499 21.7983 6.13939 21.2846 6.27226 20.92C6.40513 20.5555 7.09616 20.4782 7.81571 20.7475C8.53527 21.0168 9.01087 21.5305 8.878 21.8951Z" fill="#111111"/>
<path d="M8.878 41.5982C8.74513 41.9627 8.0541 42.04 7.33455 41.7707C6.61499 41.5015 6.13939 40.9877 6.27226 40.6231C6.40513 40.2586 7.09616 40.1814 7.81571 40.4506C8.53527 40.7199 9.01087 41.2337 8.878 41.5982Z" fill="#111111"/>
<path d="M8.878 18.751C8.74513 19.1156 8.0541 19.1928 7.33455 18.9235C6.61499 18.6543 6.13939 18.1405 6.27226 17.776C6.40513 17.4114 7.09616 17.3342 7.81571 17.6034C8.53527 17.8727 9.01087 18.3865 8.878 18.751Z" fill="#111111"/>
<path d="M8.878 38.4546C8.74513 38.8192 8.0541 38.8964 7.33455 38.6272C6.61499 38.3579 6.13939 37.8441 6.27226 37.4796C6.40513 37.1151 7.09616 37.0378 7.81571 37.3071C8.53527 37.5763 9.01087 38.0901 8.878 38.4546Z" fill="#111111"/>
<path d="M12.9675 14.7991C13.2482 15.0638 12.8551 15.3163 12.0895 15.3631C11.3238 15.4099 10.4755 15.2332 10.1947 14.9685C9.91395 14.7038 10.307 14.4513 11.0727 14.4045C11.8384 14.3577 12.6867 14.5344 12.9675 14.7991Z" fill="#111111"/>
<path d="M40.3893 12.3645C40.6701 12.6292 40.277 12.8818 39.5113 12.9286C38.7457 12.9753 37.8974 12.7987 37.6166 12.5339C37.3358 12.2692 37.7289 12.0167 38.4946 11.9699C39.2602 11.9231 40.1086 12.0998 40.3893 12.3645Z" fill="#111111"/>
<path d="M34.8346 12.8982C35.1154 13.1629 34.7223 13.4155 33.9567 13.4622C33.191 13.509 32.3427 13.3324 32.0619 13.0676C31.7811 12.8029 32.1742 12.5504 32.9399 12.5036C33.7056 12.4568 34.5539 12.6335 34.8346 12.8982Z" fill="#111111"/>
<path d="M29.28 13.3845C29.5607 13.6493 29.1676 13.9018 28.402 13.9486C27.6363 13.9954 26.788 13.8187 26.5072 13.554C26.2265 13.2892 26.6195 13.0367 27.3852 12.9899C28.1509 12.9432 28.9992 13.1198 29.28 13.3845Z" fill="#111111"/>
<path d="M23.7253 13.9143C24.006 14.1791 23.613 14.4316 22.8473 14.4784C22.0816 14.5251 21.2333 14.3485 20.9525 14.0837C20.6718 13.819 21.0648 13.5665 21.8305 13.5197C22.5962 13.4729 23.4445 13.6496 23.7253 13.9143Z" fill="#111111"/>
<path d="M18.1706 14.3367C18.4514 14.6014 18.0583 14.8539 17.2926 14.9007C16.5269 14.9475 15.6786 14.7708 15.3978 14.5061C15.1171 14.2414 15.5102 13.9889 16.2758 13.9421C17.0415 13.8953 17.8898 14.072 18.1706 14.3367Z" fill="#111111"/>
</g>
<defs>
<linearGradient id="paint0_linear_1777_968" x1="32.6423" y1="16.0405" x2="34.0861" y2="45.8136" gradientUnits="userSpaceOnUse">
<stop offset="0.0247017" stop-color="#E8BE97"/>
<stop offset="0.0523978" stop-color="#DAAE86"/>
<stop offset="1" stop-color="#DAAE86"/>
</linearGradient>
<linearGradient id="paint1_linear_1777_968" x1="9.54512" y1="16.2394" x2="12.7962" y2="9.3637" gradientUnits="userSpaceOnUse">
<stop stop-color="#C49972"/>
<stop offset="0.0677083" stop-color="#E8BE97"/>
<stop offset="1" stop-color="#E8BE97"/>
</linearGradient>
<linearGradient id="paint2_linear_1777_968" x1="-0.0004442" y1="42.2089" x2="15.4543" y2="42.2089" gradientUnits="userSpaceOnUse">
<stop stop-color="#C49972"/>
<stop offset="0.947917" stop-color="#C49972"/>
<stop offset="1" stop-color="#DAAE86"/>
</linearGradient>
<clipPath id="clip0_1777_968">
<rect width="51" height="38" fill="white" transform="translate(0 9)"/>
</clipPath>
</defs>
</svg>
