<svg width="88" height="57" viewBox="0 0 88 57" fill="none" xmlns="http://www.w3.org/2000/svg">
<g clip-path="url(#clip0_1777_1126)">
<path fill-rule="evenodd" clip-rule="evenodd" d="M26 41.8129L0 36.6262V42.0523L26 56.2958V41.8129Z" fill="url(#paint0_linear_1777_1126)"/>
<path fill-rule="evenodd" clip-rule="evenodd" d="M26 56.2959L80 51.5481V46.122L34 43.409L26 42.3699V56.2959Z" fill="url(#paint1_linear_1777_1126)"/>
<path d="M26 50.8698L0 36.6262H61.3333L80 46.1219L26 50.8698Z" fill="url(#paint2_linear_1777_1126)"/>
<path d="M39.6295 24.2921L58.7157 22.6915C59.1615 22.6542 59.3843 22.6355 59.5563 22.7108C59.7073 22.7769 59.832 22.8915 59.9105 23.0366C59.9999 23.2016 59.9999 23.4253 59.9999 23.8726V37.486C59.9999 38.2551 59.9999 38.6395 59.855 38.9426C59.7273 39.2098 59.5225 39.4323 59.2671 39.5819C58.9772 39.7517 58.5939 39.7838 57.8276 39.8481L39.6295 41.374V24.2921Z" fill="url(#paint3_linear_1777_1126)"/>
<path d="M39.6296 24.2919L59.4542 22.6294C59.6049 22.6168 59.6421 22.4131 59.5055 22.348L52.484 19.0025C51.5364 18.551 50.4859 18.3593 49.4398 18.447L40.8518 19.1671L35.7593 19.5943L33.213 19.8077L31.9398 19.9145L31.3033 19.9679L30.985 19.9945L30.9758 19.9954C30.8905 20.0025 30.8695 20.118 30.9468 20.1547L31.2268 20.2882L31.7871 20.5551L32.9074 21.0889L35.1481 22.1566L39.6296 24.2919Z" fill="url(#paint4_linear_1777_1126)"/>
<path d="M39.6296 24.2915L35.1481 22.1562L32.9074 21.0885L31.7871 20.5547L31.2268 20.2878L30.9468 20.1543L30.9077 20.1358C30.7958 20.0824 30.6667 20.1639 30.6667 20.2878V20.5547V21.0885V22.1562V24.2915V28.5618V36.1678C30.6667 36.739 30.9951 37.2595 31.511 37.5052L39.6296 41.3734V24.2915Z" fill="url(#paint5_linear_1777_1126)"/>
<path d="M34.0279 21.6226L35.1482 22.1563L36.2686 22.6903V27.8149L35.1482 27.2811L34.0279 26.7472V21.6226Z" fill="#E8BE97"/>
<path d="M34.0279 21.6218L35.1482 22.1558L36.2686 22.6896L56.3333 20.8746L55.213 20.3408L54.0926 19.8069L34.0279 21.6218Z" fill="#FEDCBD"/>
<path d="M34.0279 33.5801L35.1482 34.1139L36.2686 34.6478V39.7724L35.1482 39.2385L34.0279 38.7047V33.5801Z" fill="#E8BE97"/>
<path d="M35.8751 26.1396C35.7972 26.361 35.3917 26.4078 34.9696 26.2444C34.5474 26.081 34.2684 25.7691 34.3464 25.5479C34.4243 25.3266 34.8298 25.2798 35.2518 25.4432C35.6741 25.6066 35.953 25.9184 35.8751 26.1396Z" fill="#111111"/>
<path d="M35.8751 38.0987C35.7972 38.3199 35.3917 38.3668 34.9696 38.2034C34.5474 38.04 34.2684 37.7282 34.3464 37.5068C34.4243 37.2856 34.8298 37.2387 35.2518 37.4022C35.6741 37.5656 35.953 37.8773 35.8751 38.0987Z" fill="#111111"/>
<path d="M35.8751 24.2314C35.7972 24.4527 35.3917 24.4996 34.9696 24.3362C34.5474 24.1727 34.2684 23.8609 34.3464 23.6397C34.4243 23.4184 34.8298 23.3716 35.2518 23.535C35.6741 23.6984 35.953 24.0102 35.8751 24.2314Z" fill="#111111"/>
<path d="M35.8751 36.1882C35.7972 36.4095 35.3917 36.4564 34.9696 36.2929C34.5474 36.1295 34.2684 35.8177 34.3464 35.5965C34.4243 35.3752 34.8298 35.3284 35.2518 35.4918C35.6741 35.6552 35.953 35.967 35.8751 36.1882Z" fill="#111111"/>
<path d="M38.2756 21.8331C38.4401 21.9938 38.2096 22.147 37.7604 22.1755C37.3113 22.2039 36.8135 22.0966 36.6487 21.9359C36.4841 21.7753 36.7147 21.622 37.1638 21.5937C37.613 21.5652 38.1108 21.6725 38.2756 21.8331Z" fill="#111111"/>
<path d="M54.3618 20.3573C54.5265 20.518 54.2958 20.6712 53.8467 20.6996C53.3975 20.7281 52.8997 20.6208 52.7351 20.4601C52.5704 20.2995 52.8009 20.1461 53.2501 20.1179C53.6993 20.0894 54.197 20.1967 54.3618 20.3573Z" fill="#111111"/>
<path d="M51.1025 20.6809C51.2671 20.8414 51.0366 20.9948 50.5874 21.0232C50.1382 21.0515 49.6404 20.9443 49.4757 20.7837C49.3111 20.6229 49.5416 20.4697 49.9908 20.4413C50.44 20.413 50.9378 20.5201 51.1025 20.6809Z" fill="#111111"/>
<path d="M47.8431 20.9717C48.0079 21.1323 47.7773 21.2856 47.3281 21.3139C46.879 21.3423 46.3812 21.2351 46.2164 21.0745C46.0518 20.9137 46.2824 20.7606 46.7316 20.7321C47.1807 20.7037 47.6785 20.8109 47.8431 20.9717Z" fill="#111111"/>
<path d="M44.5839 21.2955C44.7486 21.4562 44.5181 21.6094 44.0687 21.6379C43.6196 21.6663 43.1219 21.559 42.9572 21.3983C42.7925 21.2377 43.0231 21.0844 43.4723 21.0561C43.9215 21.0276 44.4191 21.1349 44.5839 21.2955Z" fill="#111111"/>
<path d="M41.3246 21.5525C41.4893 21.7131 41.2587 21.8664 40.8095 21.8947C40.3603 21.9231 39.8627 21.8159 39.6979 21.6553C39.5332 21.4946 39.7639 21.3414 40.213 21.3129C40.6622 21.2845 41.1599 21.3917 41.3246 21.5525Z" fill="#111111"/>
<path d="M50.2963 29.7181L69.3824 28.1176C69.8281 28.0802 70.051 28.0616 70.223 28.1368C70.3741 28.2029 70.4987 28.3176 70.5772 28.4626C70.6667 28.6276 70.6667 28.8513 70.6667 29.2986V42.9121C70.6667 43.6811 70.6667 44.0656 70.5216 44.3687C70.3939 44.6358 70.1892 44.8583 69.9338 45.0079C69.6439 45.1777 69.2606 45.2099 68.4944 45.2741L50.2963 46.8001V29.7181Z" fill="url(#paint6_linear_1777_1126)"/>
<path d="M50.2963 29.7179L70.1209 28.0554C70.2716 28.0428 70.3087 27.8391 70.1721 27.7741L63.1507 24.4286C62.203 23.977 61.1524 23.7853 60.1065 23.873L51.5185 24.5932L46.4259 25.0203L43.8796 25.2338L42.6065 25.3406L41.9699 25.3939L41.6516 25.4206L41.6425 25.4215C41.5572 25.4286 41.5361 25.544 41.6135 25.5807L41.8935 25.7142L42.4536 25.9812L43.5741 26.5149L45.8148 27.5826L50.2963 29.7179Z" fill="url(#paint7_linear_1777_1126)"/>
<path d="M50.2963 29.7181L45.8148 27.5829L43.5741 26.5153L42.4536 25.9816L41.8935 25.7146L41.6135 25.5811L41.5742 25.5624C41.4625 25.5093 41.3333 25.5907 41.3333 25.7146V25.9816V26.5153V27.5829V29.7181V33.9887V41.5946C41.3333 42.1659 41.6618 42.6863 42.1776 42.9319L50.2963 46.8002V29.7181Z" fill="url(#paint8_linear_1777_1126)"/>
<path d="M44.6945 27.0479L45.8148 27.5816L46.9353 28.1156V33.2401L45.8148 32.7064L44.6945 32.1724V27.0479Z" fill="#E8BE97"/>
<path d="M44.6945 27.0486L45.8148 27.5824L46.9353 28.1163L67 26.3013L65.8797 25.7674L64.7593 25.2336L44.6945 27.0486Z" fill="#FEDCBD"/>
<path d="M44.6945 39.0061L45.8148 39.5399L46.9353 40.0737V45.1984L45.8148 44.6645L44.6945 44.1307V39.0061Z" fill="#E8BE97"/>
<path d="M46.5418 31.5659C46.4639 31.7872 46.0584 31.834 45.6363 31.6706C45.2141 31.5072 44.9351 31.1954 45.013 30.9742C45.091 30.7529 45.4964 30.706 45.9185 30.8694C46.3407 31.0329 46.6197 31.3447 46.5418 31.5659Z" fill="#111111"/>
<path d="M46.5418 43.5247C46.4639 43.7459 46.0584 43.7929 45.6363 43.6295C45.2141 43.4661 44.9351 43.1542 45.013 42.9329C45.091 42.7117 45.4964 42.6647 45.9185 42.8281C46.3407 42.9917 46.6197 43.3034 46.5418 43.5247Z" fill="#111111"/>
<path d="M46.5418 29.6574C46.4639 29.8788 46.0584 29.9256 45.6363 29.7622C45.2141 29.5988 44.9351 29.2869 45.013 29.0657C45.091 28.8444 45.4964 28.7976 45.9185 28.961C46.3407 29.1244 46.6197 29.4363 46.5418 29.6574Z" fill="#111111"/>
<path d="M46.5418 41.6142C46.4639 41.8356 46.0584 41.8824 45.6363 41.719C45.2141 41.5556 44.9351 41.2437 45.013 41.0225C45.091 40.8012 45.4964 40.7544 45.9185 40.9178C46.3407 41.0812 46.6197 41.393 46.5418 41.6142Z" fill="#111111"/>
<path d="M48.9422 27.2584C49.107 27.4191 48.8763 27.5723 48.4271 27.6008C47.9779 27.6292 47.4801 27.5219 47.3155 27.3612C47.1508 27.2006 47.3813 27.0473 47.8305 27.019C48.2797 26.9905 48.7775 27.0978 48.9422 27.2584Z" fill="#111111"/>
<path d="M65.0284 25.7835C65.1932 25.9443 64.9625 26.0975 64.5133 26.1259C64.0641 26.1543 63.5665 26.0471 63.4018 25.8863C63.237 25.7258 63.4676 25.5724 63.9169 25.5441C64.3661 25.5157 64.8637 25.6229 65.0284 25.7835Z" fill="#111111"/>
<path d="M61.7692 26.1077C61.9339 26.2682 61.7033 26.4216 61.2541 26.4499C60.8049 26.4783 60.3071 26.3711 60.1425 26.2105C59.9778 26.0497 60.2083 25.8965 60.6575 25.8681C61.1067 25.8397 61.6044 25.9469 61.7692 26.1077Z" fill="#111111"/>
<path d="M58.5099 26.3984C58.6745 26.559 58.444 26.7123 57.9948 26.7406C57.5456 26.7691 57.0479 26.6618 56.8831 26.5012C56.7185 26.3405 56.949 26.1873 57.3982 26.1589C57.8474 26.1304 58.3452 26.2377 58.5099 26.3984Z" fill="#111111"/>
<path d="M55.2505 26.7208C55.4153 26.8815 55.1847 27.0347 54.7356 27.0632C54.2864 27.0916 53.7886 26.9843 53.6238 26.8236C53.4593 26.663 53.6898 26.5097 54.139 26.4814C54.5881 26.4529 55.0859 26.5602 55.2505 26.7208Z" fill="#111111"/>
<path d="M51.9913 26.9785C52.156 27.1391 51.9255 27.2924 51.4762 27.3207C51.027 27.3492 50.5293 27.2419 50.3646 27.0813C50.1999 26.9206 50.4305 26.7674 50.8797 26.7389C51.3289 26.7105 51.8265 26.8178 51.9913 26.9785Z" fill="#111111"/>
<path d="M16.963 26.327L36.049 24.7266C36.4948 24.6891 36.7176 24.6704 36.8896 24.7457C37.0407 24.8119 37.1653 24.9266 37.2438 25.0716C37.3333 25.2366 37.3333 25.4602 37.3333 25.9076V39.5209C37.3333 40.29 37.3333 40.6744 37.1883 40.9777C37.0606 41.2446 36.8558 41.4673 36.6004 41.6168C36.3105 41.7866 35.9272 41.8187 35.161 41.883L16.963 43.4091V26.327Z" fill="url(#paint9_linear_1777_1126)"/>
<path d="M16.963 26.3266L36.7876 24.6643C36.9382 24.6515 36.9754 24.4478 36.8388 24.3828L29.8173 21.0373C28.8696 20.5859 27.8191 20.3942 26.7732 20.4819L18.1852 21.2021L13.0926 21.629L10.5463 21.8426L9.27315 21.9493L8.63658 22.0028L8.31829 22.0295L8.30918 22.0302C8.22383 22.0373 8.20278 22.1527 8.2801 22.1896L8.56019 22.3231L9.12037 22.5899L10.2407 23.1237L12.4815 24.1914L16.963 26.3266Z" fill="url(#paint10_linear_1777_1126)"/>
<path d="M16.963 26.3264L12.4815 24.1911L10.2407 23.1234L9.12037 22.5896L8.56019 22.3228L8.2801 22.1893L8.24096 22.1707C8.12916 22.1173 8 22.199 8 22.3228V22.5896V23.1234V24.1911V26.3264V30.5969V38.2027C8 38.7741 8.3285 39.2944 8.84425 39.5401L16.963 43.4084V26.3264Z" fill="url(#paint11_linear_1777_1126)"/>
<path d="M11.3612 23.6567L12.4815 24.1905L13.6019 24.7243V29.8489L12.4815 29.3151L11.3612 28.7813V23.6567Z" fill="#E8BE97"/>
<path d="M11.3612 23.6568L12.4815 24.1905L13.6019 24.7243L33.6667 22.9094L32.5464 22.3756L31.4259 21.8418L11.3612 23.6568Z" fill="#FEDCBD"/>
<path d="M11.3612 35.6147L12.4815 36.1487L13.6019 36.6824V41.807L12.4815 41.2733L11.3612 40.7395V35.6147Z" fill="#E8BE97"/>
<path d="M13.2084 28.1746C13.1305 28.3958 12.7251 28.4426 12.3029 28.2792C11.8808 28.1158 11.6018 27.804 11.6797 27.5828C11.7577 27.3616 12.1631 27.3146 12.5852 27.478C13.0074 27.6415 13.2864 27.9533 13.2084 28.1746Z" fill="#111111"/>
<path d="M13.2084 40.1335C13.1305 40.3548 12.7251 40.4017 12.3029 40.2383C11.8808 40.0748 11.6018 39.763 11.6797 39.5418C11.7577 39.3205 12.1631 39.2737 12.5852 39.4371C13.0074 39.6005 13.2864 39.9123 13.2084 40.1335Z" fill="#111111"/>
<path d="M13.2084 26.2664C13.1305 26.4876 12.7251 26.5346 12.3029 26.3712C11.8808 26.2076 11.6018 25.8959 11.6797 25.6746C11.7577 25.4534 12.1631 25.4064 12.5852 25.5698C13.0074 25.7332 13.2864 26.0451 13.2084 26.2664Z" fill="#111111"/>
<path d="M13.2084 38.2232C13.1305 38.4444 12.7251 38.4914 12.3029 38.328C11.8808 38.1644 11.6018 37.8527 11.6797 37.6314C11.7577 37.4102 12.1631 37.3632 12.5852 37.5266C13.0074 37.69 13.2864 38.0019 13.2084 38.2232Z" fill="#111111"/>
<path d="M15.6089 23.8672C15.7736 24.0278 15.543 24.1811 15.0938 24.2094C14.6446 24.2378 14.1469 24.1306 13.9822 23.97C13.8174 23.8092 14.048 23.6561 14.4972 23.6276C14.9464 23.5992 15.4441 23.7064 15.6089 23.8672Z" fill="#111111"/>
<path d="M31.6951 22.3923C31.8599 22.5529 31.6292 22.7062 31.18 22.7345C30.7308 22.763 30.2332 22.6557 30.0684 22.4951C29.9037 22.3344 30.1342 22.1812 30.5836 22.1528C31.0327 22.1243 31.5304 22.2316 31.6951 22.3923Z" fill="#111111"/>
<path d="M28.4359 22.7163C28.6006 22.877 28.3699 23.0302 27.9208 23.0586C27.4716 23.0869 26.9738 22.9798 26.8092 22.8191C26.6445 22.6585 26.875 22.5051 27.3242 22.4767C27.7733 22.4484 28.2711 22.5557 28.4359 22.7163Z" fill="#111111"/>
<path d="M25.1766 23.0063C25.3412 23.167 25.1107 23.3202 24.6615 23.3487C24.2123 23.377 23.7145 23.2698 23.5498 23.1091C23.3852 22.9485 23.6157 22.7952 24.0649 22.7667C24.5141 22.7384 25.0119 22.8457 25.1766 23.0063Z" fill="#111111"/>
<path d="M21.9172 23.3298C22.0819 23.4904 21.8514 23.6437 21.4022 23.672C20.953 23.7005 20.4552 23.5932 20.2905 23.4326C20.1259 23.2719 20.3564 23.1187 20.8056 23.0903C21.2548 23.0618 21.7526 23.1691 21.9172 23.3298Z" fill="#111111"/>
<path d="M18.6579 23.5874C18.8227 23.7479 18.5921 23.9013 18.1428 23.9297C17.6936 23.958 17.196 23.8509 17.0313 23.6902C16.8665 23.5296 17.0972 23.3762 17.5464 23.3478C17.9956 23.3195 18.4932 23.4266 18.6579 23.5874Z" fill="#111111"/>
<path d="M27.6296 31.753L46.7157 30.1526C47.1615 30.1151 47.3843 30.0964 47.5563 30.1717C47.7074 30.2379 47.832 30.3526 47.9105 30.4976C48 30.6627 48 30.8862 48 31.3336V44.947C48 45.716 48 46.1004 47.855 46.4037C47.7273 46.6707 47.5225 46.8932 47.2671 47.0428C46.9772 47.2126 46.5939 47.2447 45.8277 47.309L27.6296 48.8351V31.753Z" fill="url(#paint12_linear_1777_1126)"/>
<path d="M27.6296 31.7527L47.4542 30.0902C47.6049 30.0776 47.6421 29.8739 47.5055 29.8088L40.484 26.4633C39.5364 26.0119 38.4859 25.8202 37.4398 25.9079L28.8518 26.6281L23.7593 27.055L21.213 27.2687L19.9398 27.3753L19.3033 27.4288L18.9849 27.4555L18.9758 27.4562C18.8905 27.4633 18.8695 27.5787 18.9468 27.6156L19.2268 27.7491L19.7871 28.0159L20.9074 28.5497L23.1481 29.6174L27.6296 31.7527Z" fill="url(#paint13_linear_1777_1126)"/>
<path d="M27.6296 31.7531L23.1481 29.6179L20.9074 28.5502L19.7871 28.0164L19.2268 27.7494L18.9468 27.6161L18.9077 27.5974C18.7958 27.5441 18.6667 27.6256 18.6667 27.7494V28.0164V28.5502V29.6179V31.7531V36.0237V43.6294C18.6667 44.2007 18.9951 44.7211 19.511 44.9669L27.6296 48.8351V31.7531Z" fill="url(#paint14_linear_1777_1126)"/>
<path d="M22.0279 29.0835L23.1482 29.6174L24.2686 30.1512V35.2758L23.1482 34.742L22.0279 34.2082V29.0835Z" fill="#E8BE97"/>
<path d="M22.0279 29.0828L23.1482 29.6166L24.2686 30.1503L44.3333 28.3354L43.213 27.8016L42.0926 27.2678L22.0279 29.0828Z" fill="#FEDCBD"/>
<path d="M22.0279 41.0408L23.1482 41.5747L24.2686 42.1085V47.2331L23.1482 46.6993L22.0279 46.1654V41.0408Z" fill="#E8BE97"/>
<path d="M23.8751 33.6013C23.7972 33.8226 23.3917 33.8694 22.9696 33.706C22.5474 33.5426 22.2684 33.2308 22.3464 33.0096C22.4243 32.7883 22.8298 32.7414 23.2518 32.9048C23.6741 33.0683 23.953 33.3801 23.8751 33.6013Z" fill="#111111"/>
<path d="M23.8751 45.5595C23.7972 45.7809 23.3917 45.8277 22.9696 45.6643C22.5474 45.5009 22.2684 45.189 22.3464 44.9678C22.4243 44.7465 22.8298 44.6997 23.2518 44.8631C23.6741 45.0265 23.953 45.3384 23.8751 45.5595Z" fill="#111111"/>
<path d="M23.8751 31.6925C23.7972 31.9136 23.3917 31.9606 22.9696 31.797C22.5474 31.6336 22.2684 31.3219 22.3464 31.1006C22.4243 30.8794 22.8298 30.8325 23.2518 30.9959C23.6741 31.1593 23.953 31.4711 23.8751 31.6925Z" fill="#111111"/>
<path d="M23.8751 43.6492C23.7972 43.8704 23.3917 43.9174 22.9696 43.7538C22.5474 43.5904 22.2684 43.2787 22.3464 43.0574C22.4243 42.8362 22.8298 42.7892 23.2518 42.9527C23.6741 43.1161 23.953 43.4279 23.8751 43.6492Z" fill="#111111"/>
<path d="M26.2754 29.2934C26.4402 29.454 26.2096 29.6074 25.7605 29.6357C25.3113 29.6641 24.8135 29.5569 24.6488 29.3963C24.4842 29.2355 24.7147 29.0823 25.1639 29.0539C25.613 29.0254 26.1108 29.1327 26.2754 29.2934Z" fill="#111111"/>
<path d="M42.3618 27.8183C42.5265 27.9789 42.2959 28.1323 41.8467 28.1606C41.3975 28.189 40.8999 28.0818 40.7351 27.9212C40.5704 27.7604 40.801 27.6072 41.2502 27.5788C41.6994 27.5503 42.197 27.6576 42.3618 27.8183Z" fill="#111111"/>
<path d="M39.1025 28.1423C39.2673 28.303 39.0366 28.4562 38.5874 28.4846C38.1382 28.5129 37.6406 28.4058 37.4759 28.2451C37.3111 28.0845 37.5416 27.9312 37.991 27.9027C38.4402 27.8744 38.9378 27.9817 39.1025 28.1423Z" fill="#111111"/>
<path d="M35.8433 28.4333C36.008 28.5939 35.7773 28.7472 35.3282 28.7757C34.879 28.804 34.3812 28.6969 34.2166 28.5361C34.0519 28.3754 34.2824 28.2222 34.7316 28.1937C35.1808 28.1654 35.6785 28.2726 35.8433 28.4333Z" fill="#111111"/>
<path d="M32.584 28.7558C32.7486 28.9164 32.5181 29.0698 32.0689 29.0981C31.6197 29.1265 31.1219 29.0193 30.9572 28.8587C30.7926 28.6979 31.0231 28.5447 31.4723 28.5163C31.9215 28.4878 32.4193 28.5951 32.584 28.7558Z" fill="#111111"/>
<path d="M29.3246 29.0126C29.4893 29.1734 29.2588 29.3266 28.8096 29.355C28.3604 29.3833 27.8627 29.2762 27.6979 29.1155C27.5333 28.9549 27.7638 28.8015 28.213 28.7731C28.6622 28.7448 29.16 28.852 29.3246 29.0126Z" fill="#111111"/>
<path d="M39.6295 5.9791L58.7157 4.37858C59.1615 4.34121 59.3843 4.32253 59.5563 4.3978C59.7073 4.46393 59.832 4.5786 59.9105 4.72361C59.9999 4.88866 59.9999 5.11232 59.9999 5.55964V19.173C59.9999 19.942 59.9999 20.3266 59.855 20.6297C59.7273 20.8967 59.5225 21.1193 59.2671 21.2688C58.9772 21.4387 58.5939 21.4709 57.8276 21.535L39.6295 23.0611V5.9791Z" fill="url(#paint15_linear_1777_1126)"/>
<path d="M39.6296 5.97879L59.4542 4.31636C59.6049 4.30372 59.6421 4.10001 59.5055 4.03498L52.484 0.689488C51.5364 0.23799 50.4859 0.0462953 49.4398 0.13401L40.8518 0.854176L35.7593 1.28123L33.213 1.49476L31.9398 1.60151L31.3033 1.65489L30.985 1.68159L30.9758 1.68236C30.8905 1.68951 30.8695 1.80489 30.9468 1.84173L31.2268 1.97519L31.7871 2.24209L32.9074 2.77591L35.1481 3.84353L39.6296 5.97879Z" fill="url(#paint16_linear_1777_1126)"/>
<path d="M39.6296 5.97845L35.1481 3.84319L32.9074 2.77556L31.7871 2.24175L31.2268 1.97483L30.9468 1.84138L30.9077 1.82274C30.7958 1.76947 30.6667 1.85098 30.6667 1.97483V2.24175V2.77556V3.84319V5.97845V10.249V17.8548C30.6667 18.4261 30.9951 18.9466 31.511 19.1922L39.6296 23.0605V5.97845Z" fill="url(#paint17_linear_1777_1126)"/>
<path d="M34.0279 3.30884L35.1482 3.84265L36.2686 4.37647V9.50107L35.1482 8.96725L34.0279 8.43344V3.30884Z" fill="#E8BE97"/>
<path d="M34.0279 3.30886L35.1482 3.84268L36.2686 4.37649L56.3333 2.56153L55.213 2.0277L54.0926 1.4939L34.0279 3.30886Z" fill="#FEDCBD"/>
<path d="M34.0279 15.2668L35.1482 15.8006L36.2686 16.3344V21.459L35.1482 20.9252L34.0279 20.3914V15.2668Z" fill="#E8BE97"/>
<path d="M35.8751 7.82668C35.7972 8.04793 35.3917 8.0948 34.9696 7.93138C34.5474 7.76797 34.2684 7.45614 34.3464 7.23489C34.4243 7.01363 34.8298 6.96676 35.2518 7.13018C35.6741 7.2936 35.953 7.60543 35.8751 7.82668Z" fill="#111111"/>
<path d="M35.8751 19.7857C35.7972 20.0069 35.3917 20.0537 34.9696 19.8903C34.5474 19.7269 34.2684 19.4151 34.3464 19.1939C34.4243 18.9727 34.8298 18.9257 35.2518 19.0891C35.6741 19.2525 35.953 19.5644 35.8751 19.7857Z" fill="#111111"/>
<path d="M35.8751 5.91848C35.7972 6.13972 35.3917 6.18661 34.9696 6.02319C34.5474 5.85977 34.2684 5.54793 34.3464 5.32668C34.4243 5.10544 34.8298 5.05855 35.2518 5.22197C35.6741 5.3854 35.953 5.69723 35.8751 5.91848Z" fill="#111111"/>
<path d="M35.8751 17.8752C35.7972 18.0965 35.3917 18.1434 34.9696 17.98C34.5474 17.8165 34.2684 17.5047 34.3464 17.2835C34.4243 17.0622 34.8298 17.0154 35.2518 17.1788C35.6741 17.3422 35.953 17.654 35.8751 17.8752Z" fill="#111111"/>
<path d="M38.2756 3.5192C38.4401 3.67987 38.2096 3.83313 37.7604 3.86153C37.3113 3.88993 36.8135 3.7827 36.6487 3.62203C36.4841 3.46137 36.7147 3.30809 37.1638 3.27971C37.613 3.25131 38.1108 3.35854 38.2756 3.5192Z" fill="#111111"/>
<path d="M54.3618 2.04435C54.5265 2.20503 54.2958 2.35829 53.8467 2.38669C53.3975 2.41507 52.8997 2.30784 52.7351 2.14718C52.5704 1.98651 52.8009 1.83325 53.2501 1.80485C53.6993 1.77645 54.197 1.88368 54.3618 2.04435Z" fill="#111111"/>
<path d="M51.1025 2.36832C51.2671 2.529 51.0366 2.68226 50.5874 2.71066C50.1382 2.73905 49.6404 2.63182 49.4757 2.47115C49.3111 2.31049 49.5416 2.15723 49.9908 2.12883C50.44 2.10043 50.9378 2.20766 51.1025 2.36832Z" fill="#111111"/>
<path d="M47.8431 2.65836C48.0079 2.81904 47.7773 2.9723 47.3281 3.0007C46.879 3.02909 46.3812 2.92186 46.2164 2.76119C46.0518 2.60053 46.2824 2.44727 46.7316 2.41887C47.1807 2.39047 47.6785 2.4977 47.8431 2.65836Z" fill="#111111"/>
<path d="M44.5839 2.98186C44.7486 3.14253 44.5181 3.29578 44.0687 3.32418C43.6196 3.35257 43.1219 3.24534 42.9572 3.08467C42.7925 2.92401 43.0231 2.77075 43.4723 2.74235C43.9215 2.71396 44.4191 2.82119 44.5839 2.98186Z" fill="#111111"/>
<path d="M41.3246 3.23942C41.4893 3.4001 41.2587 3.55336 40.8095 3.58176C40.3603 3.61014 39.8627 3.50291 39.6979 3.34225C39.5332 3.18158 39.7639 3.02832 40.213 2.99992C40.6622 2.97152 41.1599 3.07875 41.3246 3.23942Z" fill="#111111"/>
<path d="M50.2963 11.4051L69.3824 9.80461C69.8281 9.76723 70.051 9.74855 70.223 9.82382C70.3741 9.88996 70.4987 10.0046 70.5772 10.1496C70.6667 10.3147 70.6667 10.5383 70.6667 10.9856V24.599C70.6667 25.368 70.6667 25.7526 70.5216 26.0557C70.3939 26.3227 70.1892 26.5453 69.9338 26.6948C69.6439 26.8648 69.2606 26.8969 68.4944 26.9611L50.2963 28.4871V11.4051Z" fill="url(#paint18_linear_1777_1126)"/>
<path d="M50.2963 11.4048L70.1209 9.74239C70.2716 9.72975 70.3087 9.52605 70.1721 9.46101L63.1507 6.11551C62.203 5.66402 61.1524 5.47233 60.1065 5.56003L51.5185 6.28021L46.4259 6.70726L43.8796 6.92079L42.6065 7.02754L41.9699 7.08092L41.6516 7.10762L41.6425 7.10837C41.5572 7.11554 41.5361 7.23092 41.6135 7.26776L41.8935 7.40122L42.4536 7.66812L43.5741 8.20193L45.8148 9.26956L50.2963 11.4048Z" fill="url(#paint19_linear_1777_1126)"/>
<path d="M50.2963 11.4052L45.8148 9.26994L43.5741 8.20233L42.4536 7.66851L41.8935 7.4016L41.6135 7.26815L41.5742 7.2495C41.4625 7.19622 41.3333 7.27775 41.3333 7.4016V7.66851V8.20233V9.26994V11.4052V15.6757V23.2815C41.3333 23.8529 41.6618 24.3732 42.1776 24.619L50.2963 28.4873V11.4052Z" fill="url(#paint20_linear_1777_1126)"/>
<path d="M44.6945 8.7356L45.8148 9.26942L46.9353 9.80322V14.9278L45.8148 14.394L44.6945 13.8602V8.7356Z" fill="#E8BE97"/>
<path d="M44.6945 8.73488L45.8148 9.26869L46.9353 9.80251L67 7.98755L65.8797 7.45373L64.7593 6.91992L44.6945 8.73488Z" fill="#FEDCBD"/>
<path d="M44.6945 20.6931L45.8148 21.2269L46.9353 21.7607V26.8853L45.8148 26.3515L44.6945 25.8177V20.6931Z" fill="#E8BE97"/>
<path d="M46.5418 13.2534C46.4639 13.4747 46.0584 13.5216 45.6363 13.3581C45.2141 13.1947 44.9351 12.8829 45.013 12.6616C45.091 12.4404 45.4964 12.3935 45.9185 12.5569C46.3407 12.7203 46.6197 13.0322 46.5418 13.2534Z" fill="#111111"/>
<path d="M46.5418 25.2117C46.4639 25.4329 46.0584 25.4797 45.6363 25.3163C45.2141 25.1529 44.9351 24.8411 45.013 24.6199C45.091 24.3987 45.4964 24.3517 45.9185 24.5152C46.3407 24.6786 46.6197 24.9904 46.5418 25.2117Z" fill="#111111"/>
<path d="M46.5418 11.3445C46.4639 11.5658 46.0584 11.6126 45.6363 11.4492C45.2141 11.2858 44.9351 10.974 45.013 10.7527C45.091 10.5315 45.4964 10.4846 45.9185 10.648C46.3407 10.8114 46.6197 11.1232 46.5418 11.3445Z" fill="#111111"/>
<path d="M46.5418 23.3012C46.4639 23.5224 46.0584 23.5694 45.6363 23.406C45.2141 23.2426 44.9351 22.9307 45.013 22.7094C45.091 22.4882 45.4964 22.4414 45.9185 22.6048C46.3407 22.7682 46.6197 23.0801 46.5418 23.3012Z" fill="#111111"/>
<path d="M48.9422 8.94524C49.107 9.1059 48.8763 9.25916 48.4271 9.28756C47.9779 9.31595 47.4801 9.20872 47.3155 9.04805C47.1508 8.88739 47.3813 8.73413 47.8305 8.70573C48.2797 8.67734 48.7775 8.78457 48.9422 8.94524Z" fill="#111111"/>
<path d="M65.0284 7.47037C65.1932 7.63104 64.9625 7.78431 64.5133 7.8127C64.0641 7.8411 63.5665 7.73387 63.4018 7.5732C63.237 7.41254 63.4676 7.25926 63.9169 7.23088C64.3661 7.20248 64.8637 7.30971 65.0284 7.47037Z" fill="#111111"/>
<path d="M61.7692 7.79435C61.9339 7.95502 61.7033 8.10829 61.2541 8.13667C60.8049 8.16507 60.3071 8.05784 60.1425 7.89718C59.9778 7.73651 60.2083 7.58324 60.6575 7.55485C61.1067 7.52645 61.6044 7.63368 61.7692 7.79435Z" fill="#111111"/>
<path d="M58.5099 8.08512C58.6745 8.24579 58.444 8.39906 57.9948 8.42745C57.5456 8.45585 57.0479 8.34862 56.8831 8.18795C56.7185 8.02728 56.949 7.87401 57.3982 7.84562C57.8474 7.81722 58.3452 7.92445 58.5099 8.08512Z" fill="#111111"/>
<path d="M55.2505 8.40787C55.4153 8.56856 55.1847 8.72181 54.7356 8.75021C54.2864 8.7786 53.7886 8.67137 53.6238 8.5107C53.4593 8.35004 53.6898 8.19678 54.139 8.16838C54.5881 8.13998 55.0859 8.24721 55.2505 8.40787Z" fill="#111111"/>
<path d="M51.9913 8.66471C52.156 8.82539 51.9255 8.97865 51.4762 9.00705C51.027 9.03544 50.5293 8.92821 50.3646 8.76754C50.1999 8.60687 50.4305 8.45361 50.8797 8.42521C51.3289 8.39681 51.8265 8.50404 51.9913 8.66471Z" fill="#111111"/>
<path d="M16.963 8.01401L36.049 6.4135C36.4948 6.37612 36.7176 6.35743 36.8896 6.43272C37.0407 6.49885 37.1653 6.6135 37.2438 6.75852C37.3333 6.92358 37.3333 7.14722 37.3333 7.59454V21.208C37.3333 21.977 37.3333 22.3614 37.1883 22.6647C37.0606 22.9317 36.8558 23.1542 36.6004 23.3038C36.3105 23.4736 35.9272 23.5057 35.161 23.57L16.963 25.0961V8.01401Z" fill="url(#paint21_linear_1777_1126)"/>
<path d="M16.963 8.01345L36.7876 6.35102C36.9382 6.33838 36.9754 6.13469 36.8388 6.06966L29.8173 2.72416C28.8696 2.27266 27.8191 2.08096 26.7732 2.16868L18.1852 2.88884L13.0926 3.31589L10.5463 3.52942L9.27315 3.63619L8.63658 3.68957L8.31829 3.71626L8.30918 3.71702C8.22383 3.72417 8.20278 3.83957 8.2801 3.8764L8.56019 4.00985L9.12037 4.27677L10.2407 4.81058L12.4815 5.8782L16.963 8.01345Z" fill="url(#paint22_linear_1777_1126)"/>
<path d="M16.963 8.01336L12.4815 5.8781L10.2407 4.81048L9.12037 4.27666L8.56019 4.00976L8.2801 3.87631L8.24096 3.85765C8.12916 3.80438 8 3.88591 8 4.00976V4.27666V4.81048V5.8781V8.01336V12.2839V19.8897C8 20.461 8.3285 20.9814 8.84425 21.2272L16.963 25.0953V8.01336Z" fill="url(#paint23_linear_1777_1126)"/>
<path d="M11.3612 5.34351L12.4815 5.87733L13.6019 6.41114V11.5357L12.4815 11.0019L11.3612 10.4681V5.34351Z" fill="#E8BE97"/>
<path d="M11.3612 5.3428L12.4815 5.8766L13.6019 6.41042L33.6667 4.59546L32.5464 4.06164L31.4259 3.52783L11.3612 5.3428Z" fill="#FEDCBD"/>
<path d="M11.3612 17.3018L12.4815 17.8355L13.6019 18.3695V23.4941L12.4815 22.9601L11.3612 22.4264V17.3018Z" fill="#E8BE97"/>
<path d="M13.2084 9.86159C13.1305 10.0828 12.7251 10.1297 12.3029 9.9663C11.8808 9.80288 11.6018 9.49104 11.6797 9.2698C11.7577 9.04856 12.1631 9.00167 12.5852 9.16509C13.0074 9.32851 13.2864 9.64035 13.2084 9.86159Z" fill="#111111"/>
<path d="M13.2084 21.8205C13.1305 22.0417 12.7251 22.0887 12.3029 21.9253C11.8808 21.7619 11.6018 21.45 11.6797 21.2287C11.7577 21.0075 12.1631 20.9607 12.5852 21.1241C13.0074 21.2875 13.2864 21.5994 13.2084 21.8205Z" fill="#111111"/>
<path d="M13.2084 7.95314C13.1305 8.1744 12.7251 8.22127 12.3029 8.05785C11.8808 7.89442 11.6018 7.5826 11.6797 7.36134C11.7577 7.1401 12.1631 7.09322 12.5852 7.25665C13.0074 7.42005 13.2864 7.73189 13.2084 7.95314Z" fill="#111111"/>
<path d="M13.2084 19.9099C13.1305 20.1312 12.7251 20.178 12.3029 20.0146C11.8808 19.8512 11.6018 19.5394 11.6797 19.3182C11.7577 19.0968 12.1631 19.05 12.5852 19.2134C13.0074 19.3768 13.2864 19.6887 13.2084 19.9099Z" fill="#111111"/>
<path d="M15.6089 5.55411C15.7736 5.7148 15.543 5.86805 15.0938 5.89645C14.6446 5.92484 14.1469 5.81761 13.9822 5.65694C13.8174 5.49628 14.048 5.34302 14.4972 5.31462C14.9464 5.28622 15.4441 5.39345 15.6089 5.55411Z" fill="#111111"/>
<path d="M31.6951 4.07927C31.8599 4.23994 31.6292 4.3932 31.18 4.4216C30.7308 4.45 30.2332 4.34277 30.0684 4.1821C29.9037 4.02142 30.1342 3.86816 30.5836 3.83976C31.0327 3.81137 31.5304 3.9186 31.6951 4.07927Z" fill="#111111"/>
<path d="M28.4359 4.40325C28.6006 4.56391 28.3699 4.71717 27.9208 4.74557C27.4716 4.77397 26.9738 4.66674 26.8092 4.50608C26.6445 4.34539 26.875 4.19213 27.3242 4.16373C27.7733 4.13535 28.2711 4.24258 28.4359 4.40325Z" fill="#111111"/>
<path d="M25.1766 4.69327C25.3412 4.85394 25.1107 5.00722 24.6615 5.0356C24.2123 5.064 23.7145 4.95677 23.5498 4.7961C23.3852 4.63544 23.6157 4.48216 24.0649 4.45378C24.5141 4.42538 25.0119 4.53261 25.1766 4.69327Z" fill="#111111"/>
<path d="M21.9172 5.01676C22.0819 5.17743 21.8514 5.3307 21.4022 5.35909C20.953 5.38749 20.4552 5.28026 20.2905 5.11959C20.1259 4.95892 20.3564 4.80565 20.8056 4.77726C21.2548 4.74886 21.7526 4.85609 21.9172 5.01676Z" fill="#111111"/>
<path d="M18.6579 5.27335C18.8227 5.43402 18.5921 5.58729 18.1428 5.61568C17.6936 5.64408 17.196 5.53685 17.0313 5.37618C16.8665 5.21552 17.0972 5.06224 17.5464 5.03386C17.9956 5.00546 18.4932 5.11269 18.6579 5.27335Z" fill="#111111"/>
<path d="M27.6296 13.44L46.7157 11.8395C47.1615 11.8022 47.3843 11.7835 47.5563 11.8587C47.7074 11.9249 47.832 12.0395 47.9105 12.1845C48 12.3496 48 12.5732 48 13.0206V26.634C48 27.403 48 27.7875 47.855 28.0907C47.7273 28.3577 47.5225 28.5802 47.2671 28.7298C46.9772 28.8996 46.5939 28.9318 45.8277 28.9961L27.6296 30.5221V13.44Z" fill="url(#paint24_linear_1777_1126)"/>
<path d="M27.6296 13.4397L47.4542 11.7773C47.6049 11.7647 47.6421 11.5609 47.5055 11.4959L40.484 8.15043C39.5364 7.69893 38.4859 7.50723 37.4398 7.59495L28.8518 8.31511L23.7593 8.74216L21.213 8.95569L19.9398 9.06246L19.3033 9.11584L18.9849 9.14252L18.9758 9.14329C18.8905 9.15044 18.8695 9.26582 18.9468 9.30267L19.2268 9.43612L19.7871 9.70302L20.9074 10.2368L23.1481 11.3045L27.6296 13.4397Z" fill="url(#paint25_linear_1777_1126)"/>
<path d="M27.6296 13.4401L23.1481 11.3049L20.9074 10.2372L19.7871 9.70342L19.2268 9.43652L18.9468 9.30305L18.9077 9.28441C18.7958 9.23114 18.6667 9.31265 18.6667 9.43652V9.70342V10.2372V11.3049V13.4401V17.7106V25.3165C18.6667 25.8877 18.9951 26.4082 19.511 26.6538L27.6296 30.5221V13.4401Z" fill="url(#paint26_linear_1777_1126)"/>
<path d="M22.0279 10.7705L23.1482 11.3043L24.2686 11.8381V16.9628L23.1482 16.429L22.0279 15.8951V10.7705Z" fill="#E8BE97"/>
<path d="M22.0279 10.7696L23.1482 11.3034L24.2686 11.8372L44.3333 10.0222L43.213 9.48841L42.0926 8.95459L22.0279 10.7696Z" fill="#FEDCBD"/>
<path d="M22.0279 22.7278L23.1482 23.2616L24.2686 23.7955V28.9201L23.1482 28.3862L22.0279 27.8524V22.7278Z" fill="#E8BE97"/>
<path d="M23.8751 15.2883C23.7972 15.5097 23.3917 15.5565 22.9696 15.3931C22.5474 15.2297 22.2684 14.9178 22.3464 14.6966C22.4243 14.4753 22.8298 14.4284 23.2518 14.5919C23.6741 14.7553 23.953 15.0671 23.8751 15.2883Z" fill="#111111"/>
<path d="M23.8751 27.2458C23.7972 27.467 23.3917 27.514 22.9696 27.3506C22.5474 27.1872 22.2684 26.8753 22.3464 26.654C22.4243 26.4328 22.8298 26.386 23.2518 26.5494C23.6741 26.7128 23.953 27.0246 23.8751 27.2458Z" fill="#111111"/>
<path d="M23.8751 13.3801C23.7972 13.6014 23.3917 13.6483 22.9696 13.4849C22.5474 13.3214 22.2684 13.0096 22.3464 12.7884C22.4243 12.5671 22.8298 12.5202 23.2518 12.6836C23.6741 12.8471 23.953 13.1589 23.8751 13.3801Z" fill="#111111"/>
<path d="M23.8751 25.3359C23.7972 25.5572 23.3917 25.6041 22.9696 25.4406C22.5474 25.2772 22.2684 24.9654 22.3464 24.7442C22.4243 24.5229 22.8298 24.4761 23.2518 24.6395C23.6741 24.8029 23.953 25.1147 23.8751 25.3359Z" fill="#111111"/>
<path d="M26.2754 10.9801C26.4402 11.1408 26.2096 11.2941 25.7605 11.3225C25.3113 11.3509 24.8135 11.2436 24.6488 11.083C24.4842 10.9223 24.7147 10.769 25.1639 10.7406C25.613 10.7122 26.1108 10.8195 26.2754 10.9801Z" fill="#111111"/>
<path d="M42.3618 9.5053C42.5265 9.66596 42.2959 9.81922 41.8467 9.84762C41.3975 9.87601 40.8999 9.76878 40.7351 9.60811C40.5704 9.44744 40.801 9.29419 41.2502 9.26579C41.6994 9.2374 42.197 9.34463 42.3618 9.5053Z" fill="#111111"/>
<path d="M39.1025 9.82927C39.2673 9.98994 39.0366 10.1432 38.5874 10.1716C38.1382 10.2 37.6406 10.0928 37.4759 9.93209C37.3111 9.77142 37.5416 9.61816 37.991 9.58976C38.4402 9.56137 38.9378 9.6686 39.1025 9.82927Z" fill="#111111"/>
<path d="M35.8433 10.12C36.008 10.2807 35.7773 10.434 35.3282 10.4624C34.879 10.4908 34.3812 10.3835 34.2166 10.2229C34.0519 10.0622 34.2824 9.90893 34.7316 9.88053C35.1808 9.85215 35.6785 9.95938 35.8433 10.12Z" fill="#111111"/>
<path d="M32.584 10.4428C32.7486 10.6035 32.5181 10.7567 32.0689 10.7851C31.6197 10.8135 31.1219 10.7063 30.9572 10.5456C30.7926 10.385 31.0231 10.2317 31.4723 10.2033C31.9215 10.1749 32.4193 10.2821 32.584 10.4428Z" fill="#111111"/>
<path d="M29.3246 10.6996C29.4893 10.8603 29.2588 11.0136 28.8096 11.042C28.3604 11.0704 27.8627 10.9631 27.6979 10.8025C27.5333 10.6418 27.7638 10.4885 28.213 10.4601C28.6622 10.4317 29.16 10.539 29.3246 10.6996Z" fill="#111111"/>
</g>
<defs>
<linearGradient id="paint0_linear_1777_1126" x1="13" y1="36.6262" x2="13" y2="56.2958" gradientUnits="userSpaceOnUse">
<stop stop-color="#96683C"/>
<stop offset="1" stop-color="#614122"/>
</linearGradient>
<linearGradient id="paint1_linear_1777_1126" x1="26" y1="49.333" x2="80" y2="49.333" gradientUnits="userSpaceOnUse">
<stop stop-color="#825A34"/>
<stop offset="1" stop-color="#5D4025"/>
</linearGradient>
<linearGradient id="paint2_linear_1777_1126" x1="2.66667" y1="45.1044" x2="80" y2="45.1044" gradientUnits="userSpaceOnUse">
<stop stop-color="#BB8856"/>
<stop offset="1" stop-color="#AC7846"/>
</linearGradient>
<linearGradient id="paint3_linear_1777_1126" x1="49.8147" y1="22.5838" x2="50.7212" y2="40.6511" gradientUnits="userSpaceOnUse">
<stop offset="0.0247017" stop-color="#E8BE97"/>
<stop offset="0.0523978" stop-color="#DAAE86"/>
<stop offset="1" stop-color="#DAAE86"/>
</linearGradient>
<linearGradient id="paint4_linear_1777_1126" x1="36.2665" y1="22.707" x2="38.2819" y2="18.5868" gradientUnits="userSpaceOnUse">
<stop stop-color="#C49972"/>
<stop offset="0.0677083" stop-color="#E8BE97"/>
<stop offset="1" stop-color="#E8BE97"/>
</linearGradient>
<linearGradient id="paint5_linear_1777_1126" x1="30.6664" y1="38.4667" x2="39.7332" y2="38.4667" gradientUnits="userSpaceOnUse">
<stop stop-color="#C49972"/>
<stop offset="0.947917" stop-color="#C49972"/>
<stop offset="1" stop-color="#DAAE86"/>
</linearGradient>
<linearGradient id="paint6_linear_1777_1126" x1="60.4815" y1="28.0099" x2="61.3879" y2="46.0771" gradientUnits="userSpaceOnUse">
<stop offset="0.0247017" stop-color="#E8BE97"/>
<stop offset="0.0523978" stop-color="#DAAE86"/>
<stop offset="1" stop-color="#DAAE86"/>
</linearGradient>
<linearGradient id="paint7_linear_1777_1126" x1="46.9332" y1="28.133" x2="48.9486" y2="24.0129" gradientUnits="userSpaceOnUse">
<stop stop-color="#C49972"/>
<stop offset="0.0677083" stop-color="#E8BE97"/>
<stop offset="1" stop-color="#E8BE97"/>
</linearGradient>
<linearGradient id="paint8_linear_1777_1126" x1="41.333" y1="43.8936" x2="50.3998" y2="43.8936" gradientUnits="userSpaceOnUse">
<stop stop-color="#C49972"/>
<stop offset="0.947917" stop-color="#C49972"/>
<stop offset="1" stop-color="#DAAE86"/>
</linearGradient>
<linearGradient id="paint9_linear_1777_1126" x1="27.1481" y1="24.6189" x2="28.0545" y2="42.686" gradientUnits="userSpaceOnUse">
<stop offset="0.0247017" stop-color="#E8BE97"/>
<stop offset="0.0523978" stop-color="#DAAE86"/>
<stop offset="1" stop-color="#DAAE86"/>
</linearGradient>
<linearGradient id="paint10_linear_1777_1126" x1="13.5998" y1="24.7418" x2="15.6153" y2="20.6216" gradientUnits="userSpaceOnUse">
<stop stop-color="#C49972"/>
<stop offset="0.0677083" stop-color="#E8BE97"/>
<stop offset="1" stop-color="#E8BE97"/>
</linearGradient>
<linearGradient id="paint11_linear_1777_1126" x1="7.99975" y1="40.5018" x2="17.0665" y2="40.5018" gradientUnits="userSpaceOnUse">
<stop stop-color="#C49972"/>
<stop offset="0.947917" stop-color="#C49972"/>
<stop offset="1" stop-color="#DAAE86"/>
</linearGradient>
<linearGradient id="paint12_linear_1777_1126" x1="37.8148" y1="30.0449" x2="38.7212" y2="48.112" gradientUnits="userSpaceOnUse">
<stop offset="0.0247017" stop-color="#E8BE97"/>
<stop offset="0.0523978" stop-color="#DAAE86"/>
<stop offset="1" stop-color="#DAAE86"/>
</linearGradient>
<linearGradient id="paint13_linear_1777_1126" x1="24.2665" y1="30.1678" x2="26.2819" y2="26.0476" gradientUnits="userSpaceOnUse">
<stop stop-color="#C49972"/>
<stop offset="0.0677083" stop-color="#E8BE97"/>
<stop offset="1" stop-color="#E8BE97"/>
</linearGradient>
<linearGradient id="paint14_linear_1777_1126" x1="18.6664" y1="45.9285" x2="27.7332" y2="45.9285" gradientUnits="userSpaceOnUse">
<stop stop-color="#C49972"/>
<stop offset="0.947917" stop-color="#C49972"/>
<stop offset="1" stop-color="#DAAE86"/>
</linearGradient>
<linearGradient id="paint15_linear_1777_1126" x1="49.8147" y1="4.2709" x2="50.7212" y2="22.3381" gradientUnits="userSpaceOnUse">
<stop offset="0.0247017" stop-color="#E8BE97"/>
<stop offset="0.0523978" stop-color="#DAAE86"/>
<stop offset="1" stop-color="#DAAE86"/>
</linearGradient>
<linearGradient id="paint16_linear_1777_1126" x1="36.2665" y1="4.39391" x2="38.2819" y2="0.27375" gradientUnits="userSpaceOnUse">
<stop stop-color="#C49972"/>
<stop offset="0.0677083" stop-color="#E8BE97"/>
<stop offset="1" stop-color="#E8BE97"/>
</linearGradient>
<linearGradient id="paint17_linear_1777_1126" x1="30.6664" y1="20.1538" x2="39.7332" y2="20.1538" gradientUnits="userSpaceOnUse">
<stop stop-color="#C49972"/>
<stop offset="0.947917" stop-color="#C49972"/>
<stop offset="1" stop-color="#DAAE86"/>
</linearGradient>
<linearGradient id="paint18_linear_1777_1126" x1="60.4815" y1="9.69692" x2="61.3879" y2="27.7642" gradientUnits="userSpaceOnUse">
<stop offset="0.0247017" stop-color="#E8BE97"/>
<stop offset="0.0523978" stop-color="#DAAE86"/>
<stop offset="1" stop-color="#DAAE86"/>
</linearGradient>
<linearGradient id="paint19_linear_1777_1126" x1="46.9332" y1="9.81994" x2="48.9486" y2="5.69978" gradientUnits="userSpaceOnUse">
<stop stop-color="#C49972"/>
<stop offset="0.0677083" stop-color="#E8BE97"/>
<stop offset="1" stop-color="#E8BE97"/>
</linearGradient>
<linearGradient id="paint20_linear_1777_1126" x1="41.333" y1="25.5806" x2="50.3998" y2="25.5806" gradientUnits="userSpaceOnUse">
<stop stop-color="#C49972"/>
<stop offset="0.947917" stop-color="#C49972"/>
<stop offset="1" stop-color="#DAAE86"/>
</linearGradient>
<linearGradient id="paint21_linear_1777_1126" x1="27.1481" y1="6.30581" x2="28.0545" y2="24.373" gradientUnits="userSpaceOnUse">
<stop offset="0.0247017" stop-color="#E8BE97"/>
<stop offset="0.0523978" stop-color="#DAAE86"/>
<stop offset="1" stop-color="#DAAE86"/>
</linearGradient>
<linearGradient id="paint22_linear_1777_1126" x1="13.5998" y1="6.42858" x2="15.6153" y2="2.30843" gradientUnits="userSpaceOnUse">
<stop stop-color="#C49972"/>
<stop offset="0.0677083" stop-color="#E8BE97"/>
<stop offset="1" stop-color="#E8BE97"/>
</linearGradient>
<linearGradient id="paint23_linear_1777_1126" x1="7.99975" y1="22.1887" x2="17.0665" y2="22.1887" gradientUnits="userSpaceOnUse">
<stop stop-color="#C49972"/>
<stop offset="0.947917" stop-color="#C49972"/>
<stop offset="1" stop-color="#DAAE86"/>
</linearGradient>
<linearGradient id="paint24_linear_1777_1126" x1="37.8148" y1="11.7318" x2="38.7212" y2="29.799" gradientUnits="userSpaceOnUse">
<stop offset="0.0247017" stop-color="#E8BE97"/>
<stop offset="0.0523978" stop-color="#DAAE86"/>
<stop offset="1" stop-color="#DAAE86"/>
</linearGradient>
<linearGradient id="paint25_linear_1777_1126" x1="24.2665" y1="11.8548" x2="26.2819" y2="7.73468" gradientUnits="userSpaceOnUse">
<stop stop-color="#C49972"/>
<stop offset="0.0677083" stop-color="#E8BE97"/>
<stop offset="1" stop-color="#E8BE97"/>
</linearGradient>
<linearGradient id="paint26_linear_1777_1126" x1="18.6664" y1="27.6154" x2="27.7332" y2="27.6154" gradientUnits="userSpaceOnUse">
<stop stop-color="#C49972"/>
<stop offset="0.947917" stop-color="#C49972"/>
<stop offset="1" stop-color="#DAAE86"/>
</linearGradient>
<clipPath id="clip0_1777_1126">
<rect width="80" height="57" fill="white"/>
</clipPath>
</defs>
</svg>
