<svg width="88" height="57" viewBox="0 0 88 57" fill="none" xmlns="http://www.w3.org/2000/svg">
<g clip-path="url(#clip0_1777_923)">
<path d="M12.8359 20.2959L41.1377 17.9959C41.438 17.9715 41.5881 17.9593 41.7039 18.0103C41.8056 18.055 41.8895 18.1324 41.9424 18.2302C42.0025 18.3415 42.0025 18.4921 42.0025 18.7933V40.1526C42.0025 40.6729 42.0025 40.9331 41.9043 41.138C41.8178 41.3185 41.6792 41.4688 41.5063 41.5696C41.31 41.6841 41.0507 41.7052 40.5321 41.7473L12.8359 43.9981V20.2959Z" fill="url(#paint0_linear_1777_923)"/>
<path d="M27.5513 34.9533C26.7328 35.0087 26.0216 34.9299 25.4175 34.7169C24.8183 34.5036 24.3457 34.1816 23.9998 33.7509C23.6539 33.3202 23.4591 32.8036 23.4152 32.2011L23.4079 32.0991L25.2348 31.9754L25.2421 32.0481C25.2713 32.344 25.3882 32.5949 25.5928 32.8007C25.8023 33.0063 26.08 33.1608 26.4259 33.2643C26.7718 33.363 27.1664 33.3973 27.6097 33.3673C28.0335 33.3386 28.4087 33.2473 28.7351 33.0933C29.0615 32.9394 29.3172 32.7414 29.5024 32.4994C29.6875 32.2525 29.78 31.9776 29.78 31.6749V31.6676C29.78 31.2867 29.6315 30.9867 29.3343 30.7676C29.0371 30.5436 28.5475 30.3814 27.8655 30.2811L26.7328 30.1234C25.6513 29.9672 24.8645 29.6543 24.3725 29.1847C23.8853 28.7098 23.6418 28.0794 23.6418 27.2932V27.2859C23.6418 26.656 23.8074 26.093 24.1387 25.597C24.4748 25.1006 24.9352 24.7008 25.5198 24.3975C26.1092 24.089 26.784 23.909 27.5439 23.8576C28.3234 23.8048 28.9981 23.8909 29.5681 24.116C30.1381 24.3362 30.5863 24.6599 30.9127 25.087C31.2391 25.5141 31.4218 26.0095 31.4608 26.5733L31.4681 26.668L29.6704 26.7897L29.6558 26.7028C29.612 26.4275 29.4975 26.1935 29.3124 26.001C29.1321 25.8033 28.891 25.6536 28.5889 25.552C28.2869 25.4503 27.9337 25.4132 27.5293 25.4406C27.1445 25.4667 26.801 25.551 26.499 25.6935C26.1969 25.8311 25.9582 26.0133 25.7828 26.24C25.6123 26.4664 25.5271 26.731 25.5271 27.0337V27.041C25.5271 27.4121 25.6708 27.71 25.9582 27.9347C26.2505 28.159 26.7255 28.3173 27.3832 28.4095L28.5158 28.5745C29.6266 28.7336 30.428 29.0334 30.92 29.4737C31.4169 29.9088 31.6654 30.5267 31.6654 31.3275V31.3348C31.6654 32.0184 31.4973 32.6206 31.1611 33.1414C30.8299 33.6619 30.3549 34.0798 29.7362 34.3952C29.1224 34.7102 28.3941 34.8962 27.5513 34.9533Z" fill="#5B5249"/>
<path d="M14 39.2569L40.8333 36.8867V39.2569L14 41.6272V39.2569Z" fill="#5B5249"/>
<path d="M12.8333 20.2958L41.6204 17.9565C41.7229 17.9481 41.7476 17.8091 41.6542 17.766L30.1204 12.4405C29.4951 12.1518 28.806 12.0294 28.1196 12.0852L14.5833 13.1852L7.29164 13.7777L3.64582 14.074L1.8229 14.2222L0.911445 14.2962L0.455717 14.3333L0.440265 14.3345C0.321355 14.3442 0.292717 14.5055 0.40103 14.5555L0.802071 14.7406L1.60415 15.111L3.20832 15.8517L6.41664 17.3331L12.8333 20.2958Z" fill="url(#paint1_linear_1777_923)"/>
<path d="M12.8333 20.2965L6.41665 17.3338L3.20833 15.8524L1.60416 15.1117L0.802082 14.7413L0.401041 14.5562L0.336235 14.5262C0.179245 14.4538 0 14.5684 0 14.7413V15.1117V15.8524V17.3338V20.2965V26.2221V37.4334C0 37.8234 0.226725 38.1778 0.580797 38.3413L12.8333 43.9987V20.2965Z" fill="url(#paint2_linear_1777_923)"/>
<path d="M4.8125 16.5938L6.41666 17.3344L8.02083 18.0751V25.1858L6.41666 24.4451L4.8125 23.7044V16.5938Z" fill="#E8BE97"/>
<path d="M4.8125 16.5887L6.41666 17.3294L8.02083 18.0701L36.7499 15.5517L35.1458 14.811L33.5416 14.0703L4.8125 16.5887Z" fill="#FEDCBD"/>
<path d="M4.8125 33.1836L6.41666 33.9243L8.02083 34.665V41.7756L6.41666 41.0349L4.8125 40.2942V33.1836Z" fill="#E8BE97"/>
<path d="M7.45753 22.8595C7.34592 23.1665 6.76545 23.2315 6.16102 23.0048C5.55659 22.778 5.15709 22.3453 5.2687 22.0383C5.38031 21.7313 5.96078 21.6663 6.5652 21.8931C7.16963 22.1198 7.56914 22.5525 7.45753 22.8595Z" fill="#111111"/>
<path d="M7.45753 39.4532C7.34592 39.7602 6.76545 39.8253 6.16102 39.5985C5.55659 39.3718 5.15709 38.9391 5.2687 38.6321C5.38031 38.3251 5.96078 38.26 6.5652 38.4868C7.16963 38.7135 7.56914 39.1462 7.45753 39.4532Z" fill="#111111"/>
<path d="M7.45753 20.2149C7.34592 20.5219 6.76545 20.587 6.16102 20.3602C5.55659 20.1335 5.15709 19.7008 5.2687 19.3938C5.38031 19.0868 5.96078 19.0218 6.5652 19.2485C7.16963 19.4753 7.56914 19.908 7.45753 20.2149Z" fill="#111111"/>
<path d="M7.45753 36.8048C7.34592 37.1118 6.76545 37.1768 6.16102 36.9501C5.55659 36.7233 5.15709 36.2906 5.2687 35.9836C5.38031 35.6767 5.96078 35.6116 6.5652 35.8384C7.16963 36.0651 7.56914 36.4978 7.45753 36.8048Z" fill="#111111"/>
<path d="M10.8958 16.8841C11.1316 17.107 10.8015 17.3197 10.1583 17.3591C9.51512 17.3985 8.80254 17.2497 8.56668 17.0267C8.33083 16.8038 8.66102 16.5911 9.30419 16.5517C9.94735 16.5123 10.6599 16.6611 10.8958 16.8841Z" fill="#111111"/>
<path d="M33.927 14.8333C34.1629 15.0562 33.8327 15.2689 33.1895 15.3083C32.5464 15.3477 31.8338 15.1989 31.5979 14.976C31.3621 14.753 31.6923 14.5404 32.3354 14.501C32.9786 14.4616 33.6912 14.6103 33.927 14.8333Z" fill="#111111"/>
<path d="M29.2552 15.2825C29.491 15.5054 29.1608 15.7181 28.5177 15.7575C27.8745 15.7969 27.1619 15.6481 26.9261 15.4252C26.6902 15.2022 27.0204 14.9896 27.6636 14.9502C28.3067 14.9108 29.0193 15.0596 29.2552 15.2825Z" fill="#111111"/>
<path d="M24.5989 15.6927C24.8348 15.9156 24.5046 16.1282 23.8614 16.1676C23.2183 16.207 22.5057 16.0583 22.2698 15.8353C22.034 15.6124 22.3642 15.3997 23.0073 15.3603C23.6505 15.3209 24.3631 15.4697 24.5989 15.6927Z" fill="#111111"/>
<path d="M19.927 16.138C20.1629 16.3609 19.8327 16.5736 19.1895 16.613C18.5464 16.6524 17.8338 16.5036 17.5979 16.2806C17.3621 16.0577 17.6923 15.845 18.3354 15.8056C18.9786 15.7662 19.6912 15.915 19.927 16.138Z" fill="#111111"/>
<path d="M15.263 16.4934C15.4988 16.7164 15.1686 16.929 14.5255 16.9684C13.8823 17.0078 13.1697 16.859 12.9339 16.6361C12.698 16.4132 13.0282 16.2005 13.6714 16.1611C14.3145 16.1217 15.0271 16.2705 15.263 16.4934Z" fill="#111111"/>
</g>
<defs>
<linearGradient id="paint0_linear_1777_923" x1="27.4192" y1="17.9257" x2="28.6382" y2="42.9987" gradientUnits="userSpaceOnUse">
<stop offset="0.0247017" stop-color="#E8BE97"/>
<stop offset="0.0523978" stop-color="#DAAE86"/>
<stop offset="1" stop-color="#DAAE86"/>
</linearGradient>
<linearGradient id="paint1_linear_1777_923" x1="8.0179" y1="18.0967" x2="10.7602" y2="12.3118" gradientUnits="userSpaceOnUse">
<stop stop-color="#C49972"/>
<stop offset="0.0677083" stop-color="#E8BE97"/>
<stop offset="1" stop-color="#E8BE97"/>
</linearGradient>
<linearGradient id="paint2_linear_1777_923" x1="-0.000373129" y1="39.9656" x2="12.9816" y2="39.9656" gradientUnits="userSpaceOnUse">
<stop stop-color="#C49972"/>
<stop offset="0.947917" stop-color="#C49972"/>
<stop offset="1" stop-color="#DAAE86"/>
</linearGradient>
<clipPath id="clip0_1777_923">
<rect width="43" height="32" fill="white" transform="translate(0 12)"/>
</clipPath>
</defs>
</svg>
