<svg width="88" height="57" viewBox="0 0 88 57" fill="none" xmlns="http://www.w3.org/2000/svg">
<g clip-path="url(#clip0_1777_1284)">
<g clip-path="url(#clip1_1777_1284)">
<path d="M15.3112 11.9125L49.1714 9.28515C49.4708 9.26192 49.6204 9.25031 49.7358 9.30142C49.8372 9.34634 49.9208 9.42368 49.9734 9.52129C50.0333 9.63237 50.0333 9.7825 50.0333 10.0828V50.3035C50.0333 50.8256 50.0333 51.0866 49.9346 51.292C49.8477 51.4728 49.7084 51.6233 49.5349 51.7239C49.3378 51.8382 49.0776 51.8584 48.5571 51.8987L15.3112 54.4785V11.9125Z" fill="url(#paint0_linear_1777_1284)"/>
<path d="M23.6731 36.437L27.5537 30.1798L27.1152 31.7178V30.8609L23.7023 25.8662L25.9313 25.7176L28.3795 29.5315L29.2491 29.4735L28.0214 30.2658L30.908 25.3859L33.0127 25.2455L29.4903 30.7538V31.6107L29.0445 30.1317L32.9543 35.8183L30.7838 35.963L28.2918 32.24L27.4294 32.2974L28.6718 31.5188L25.7267 36.3001L23.6731 36.437ZM34.7418 35.6991V25.1303L36.6272 25.0046V33.9841L41.4578 33.662V35.2514L34.7418 35.6991Z" fill="#5B5249"/>
<path d="M16.6941 49.0882L48.6383 46.394V49.0882L16.6941 51.7825V49.0882Z" fill="#5B5249"/>
<path d="M15.3077 11.91L49.6333 9.24652C49.7369 9.23847 49.761 9.09725 49.6659 9.05531L35.6724 2.88583C35.0682 2.61947 34.4075 2.50681 33.7493 2.55789L17.391 3.82721L8.7105 4.50078L4.37025 4.83756L2.20012 5.00596L1.11505 5.09015L0.572525 5.13225L0.550199 5.13398C0.414217 5.14453 0.382621 5.32982 0.507421 5.38484L0.98485 5.59533L1.9397 6.01631L3.84942 6.85826L7.66884 8.54218L15.3077 11.91Z" fill="url(#paint1_linear_1777_1284)"/>
<path d="M15.3077 11.911L7.66885 8.54317L3.84943 6.85925L1.93971 6.01729L0.984855 5.59631L0.507427 5.38582L0.415202 5.34516C0.233778 5.26518 0.0299988 5.39804 0.0299988 5.59631V6.01729V6.85925V8.54317V11.911V18.6466V47.0892C0.0299988 47.4855 0.263991 47.8444 0.626584 48.0043L15.3077 54.4769V11.911Z" fill="url(#paint2_linear_1777_1284)"/>
<path d="M5.75656 7.70654L7.66628 8.5485L9.57599 9.39046V17.4733L7.66628 16.6313L5.75656 15.7894V7.70654Z" fill="#E8BE97"/>
<path d="M5.75656 7.6942L7.66628 8.53616L9.57599 9.37812L43.7772 6.51546L41.8675 5.6735L39.9578 4.83154L5.75656 7.6942Z" fill="#FEDCBD"/>
<path d="M5.75656 42.1831L7.66628 43.0251L9.57599 43.867V51.9498L7.66628 51.1079L5.75656 50.2659V42.1831Z" fill="#E8BE97"/>
<path d="M8.908 14.826C8.77513 15.175 8.0841 15.2489 7.36455 14.9912C6.64499 14.7334 6.16939 14.2416 6.30226 13.8926C6.43513 13.5437 7.12616 13.4697 7.84571 13.7275C8.56527 13.9852 9.04087 14.4771 8.908 14.826Z" fill="#111111"/>
<path d="M8.908 49.3104C8.77513 49.6594 8.0841 49.7333 7.36455 49.4756C6.64499 49.2178 6.16939 48.726 6.30226 48.377C6.43513 48.028 7.12616 47.9541 7.84571 48.2118C8.56527 48.4696 9.04087 48.9614 8.908 49.3104Z" fill="#111111"/>
<path d="M8.908 11.8143C8.77513 12.1633 8.0841 12.2372 7.36455 11.9794C6.64499 11.7217 6.16939 11.2299 6.30226 10.8809C6.43513 10.5319 7.12616 10.458 7.84571 10.7157C8.56527 10.9735 9.04087 11.4653 8.908 11.8143Z" fill="#111111"/>
<path d="M8.908 46.2987C8.77513 46.6476 8.0841 46.7216 7.36455 46.4638C6.64499 46.2061 6.16939 45.7142 6.30226 45.3653C6.43513 45.0163 7.12616 44.9424 7.84571 45.2001C8.56527 45.4579 9.04087 45.9497 8.908 46.2987Z" fill="#111111"/>
<path d="M12.9975 8.03289C13.2782 8.28631 12.8851 8.52804 12.1195 8.57283C11.3538 8.61761 10.5055 8.44849 10.2247 8.19507C9.94395 7.94166 10.337 7.69992 11.1027 7.65514C11.8684 7.61035 12.7167 7.77948 12.9975 8.03289Z" fill="#111111"/>
<path d="M40.4193 5.70086C40.7001 5.95427 40.307 6.19601 39.5413 6.2408C38.7757 6.28558 37.9274 6.11646 37.6466 5.86304C37.3658 5.60963 37.7589 5.36789 38.5246 5.3231C39.2902 5.27832 40.1386 5.44745 40.4193 5.70086Z" fill="#111111"/>
<path d="M34.8646 6.21258C35.1454 6.46599 34.7523 6.70773 33.9867 6.75252C33.221 6.7973 32.3727 6.62817 32.0919 6.37476C31.8111 6.12135 32.2042 5.87961 32.9699 5.83482C33.7356 5.79004 34.5839 5.95917 34.8646 6.21258Z" fill="#111111"/>
<path d="M29.31 6.67742C29.5907 6.93084 29.1976 7.17258 28.432 7.21736C27.6663 7.26215 26.818 7.09302 26.5372 6.8396C26.2565 6.58619 26.6495 6.34445 27.4152 6.29967C28.1809 6.25488 29.0292 6.42401 29.31 6.67742Z" fill="#111111"/>
<path d="M23.7553 7.18524C24.036 7.43865 23.643 7.68039 22.8773 7.72517C22.1116 7.76996 21.2633 7.60083 20.9825 7.34742C20.7018 7.094 21.0948 6.85226 21.8605 6.80748C22.6262 6.76269 23.4745 6.93182 23.7553 7.18524Z" fill="#111111"/>
<path d="M18.2006 7.58758C18.4814 7.84099 18.0883 8.08273 17.3226 8.12752C16.5569 8.1723 15.7086 8.00317 15.4278 7.74976C15.1471 7.49635 15.5402 7.25461 16.3058 7.20982C17.0715 7.16504 17.9198 7.33417 18.2006 7.58758Z" fill="#111111"/>
</g>
</g>
<defs>
<linearGradient id="paint0_linear_1777_1284" x1="32.6723" y1="9.21827" x2="35.7498" y2="52.6283" gradientUnits="userSpaceOnUse">
<stop offset="0.0247017" stop-color="#E8BE97"/>
<stop offset="0.0523978" stop-color="#DAAE86"/>
<stop offset="1" stop-color="#DAAE86"/>
</linearGradient>
<linearGradient id="paint1_linear_1777_1284" x1="9.5751" y1="9.41027" x2="12.6006" y2="2.72618" gradientUnits="userSpaceOnUse">
<stop stop-color="#C49972"/>
<stop offset="0.0677083" stop-color="#E8BE97"/>
<stop offset="1" stop-color="#E8BE97"/>
</linearGradient>
<linearGradient id="paint2_linear_1777_1284" x1="0.0295546" y1="47.7656" x2="15.4843" y2="47.7656" gradientUnits="userSpaceOnUse">
<stop stop-color="#C49972"/>
<stop offset="0.947917" stop-color="#C49972"/>
<stop offset="1" stop-color="#DAAE86"/>
</linearGradient>
<clipPath id="clip0_1777_1284">
<rect width="88" height="57" fill="white"/>
</clipPath>
<clipPath id="clip1_1777_1284">
<rect width="51" height="53" fill="white" transform="translate(-3.05176e-05 2)"/>
</clipPath>
</defs>
</svg>
