<svg width="88" height="57" viewBox="0 0 88 57" fill="none" xmlns="http://www.w3.org/2000/svg">
<g clip-path="url(#clip0_1777_878)">
<path d="M11 21.259L35.1339 19.2568C35.4345 19.2319 35.5849 19.2194 35.7008 19.2703C35.8027 19.3149 35.8868 19.3923 35.9397 19.4902C36 19.6015 36 19.7524 36 20.0541V38.4529C36 38.9725 36 39.2322 35.902 39.437C35.8157 39.6172 35.6774 39.7675 35.5048 39.8684C35.3089 39.983 35.05 40.0045 34.5323 40.0475L11 41.9998V21.259Z" fill="url(#paint0_linear_1777_878)"/>
<path d="M14.0347 35.3207L17.9146 29.0539L17.4762 30.593V29.7361L14.0639 24.7498L16.2925 24.5958L18.7403 28.4036L19.6098 28.3435L18.3822 29.1388L21.2684 24.2517L23.3728 24.1063L19.8509 29.6232V30.4801L19.4052 29.0021L23.3143 34.6792L21.1442 34.8292L18.6526 31.1123L17.7904 31.1719L19.0325 30.3902L16.0879 35.1788L14.0347 35.3207ZM28.6453 34.5743C27.827 34.6308 27.1158 34.5531 26.5117 34.3409C25.9126 34.1284 25.4401 33.8071 25.0942 33.3769C24.7484 32.9467 24.5535 32.4304 24.5097 31.828L24.5024 31.7259L26.3291 31.5996L26.3364 31.6724C26.3656 31.9682 26.4825 32.2189 26.6871 32.4245C26.8966 32.6297 27.1742 32.7839 27.5201 32.8869C27.8659 32.9851 28.2605 33.0188 28.7038 32.9882C29.1276 32.9589 29.5027 32.867 29.829 32.7126C30.1554 32.5582 30.4111 32.3599 30.5962 32.1176C30.7813 31.8704 30.8739 31.5955 30.8739 31.2927V31.2854C30.8739 30.9046 30.7253 30.6048 30.4282 30.3861C30.131 30.1625 29.6415 30.001 28.9595 29.9017L27.827 29.7456C26.7456 29.5909 25.9589 29.279 25.4669 28.8101C24.9798 28.336 24.7362 27.7059 24.7362 26.9197V26.9124C24.7362 26.2825 24.9018 25.7193 25.2331 25.2228C25.5692 24.7259 26.0295 24.3254 26.614 24.0213C27.2035 23.712 27.8781 23.5311 28.638 23.4786C29.4174 23.4247 30.0921 23.5099 30.662 23.7341C31.2319 23.9535 31.6801 24.2766 32.0064 24.7032C32.3328 25.1299 32.5155 25.6251 32.5545 26.1888L32.5618 26.2835L30.7643 26.4077L30.7497 26.3209C30.7058 26.0456 30.5914 25.8118 30.4063 25.6195C30.226 25.422 29.9849 25.2727 29.6829 25.1715C29.3809 25.0703 29.0277 25.0337 28.6234 25.0616C28.2386 25.0882 27.8952 25.173 27.5931 25.3159C27.2911 25.454 27.0524 25.6365 26.8771 25.8635C26.7066 26.0901 26.6213 26.3548 26.6213 26.6575V26.6649C26.6213 27.036 26.765 27.3337 27.0524 27.5579C27.3447 27.7819 27.8197 27.9394 28.4773 28.0307L29.6098 28.1941C30.7205 28.3517 31.5218 28.6503 32.0138 29.0899C32.5106 29.5243 32.759 30.1419 32.759 30.9427V30.95C32.759 31.6336 32.591 32.236 32.2549 32.7573C31.9236 33.2783 31.4487 33.6969 30.8301 34.0131C30.2163 34.3289 29.488 34.516 28.6453 34.5743Z" fill="#5B5249"/>
<path d="M12 37.8519L35 35.7778V37.8519L12 39.926V37.8519Z" fill="#5B5249"/>
<path d="M11 21.2594L35.6278 19.2162C35.7298 19.2077 35.7548 19.0697 35.6622 19.026L25.9688 14.4568C25.3341 14.1576 24.6319 14.0306 23.9326 14.0886L12.5 15.0371L6.24998 15.5557L3.12498 15.8149L1.56248 15.9445L0.781234 16.0094L0.390609 16.0418L0.378709 16.0427C0.274937 16.0514 0.249545 16.1918 0.343734 16.2362L0.687484 16.3982L1.37498 16.7223L2.74998 17.3705L5.49998 18.6668L11 21.2594Z" fill="url(#paint1_linear_1777_878)"/>
<path d="M11 21.2595L5.5 18.6669L2.75 17.3706L1.375 16.7225L0.6875 16.3984L0.34375 16.2364L0.293139 16.2125C0.156823 16.1482 0 16.2477 0 16.3984V16.7225V17.3706V18.6669V21.2595V26.4447V36.1809C0 36.568 0.223443 36.9204 0.573616 37.0855L11 42.0002V21.2595Z" fill="url(#paint2_linear_1777_878)"/>
<path d="M4.125 18.0186L5.5 18.6667L6.875 19.3149V25.5371L5.5 24.8889L4.125 24.2408V18.0186Z" fill="#E8BE97"/>
<path d="M4.125 18.0187L5.5 18.6668L6.875 19.3149L31.5 17.1112L30.125 16.4631L28.75 15.8149L4.125 18.0187Z" fill="#FEDCBD"/>
<path d="M4.125 32.5371L5.5 33.1853L6.875 33.8334V40.0556L5.5 39.4075L4.125 38.7593V32.5371Z" fill="#E8BE97"/>
<path d="M6.39217 23.5036C6.2965 23.7722 5.79896 23.8291 5.28088 23.6307C4.7628 23.4323 4.42036 23.0537 4.51603 22.785C4.61169 22.5164 5.10924 22.4595 5.62732 22.6579C6.1454 22.8563 6.48784 23.2349 6.39217 23.5036Z" fill="#111111"/>
<path d="M6.39217 38.0221C6.2965 38.2908 5.79896 38.3477 5.28088 38.1493C4.7628 37.9508 4.42036 37.5722 4.51603 37.3036C4.61169 37.0349 5.10924 36.978 5.62732 37.1764C6.1454 37.3749 6.48784 37.7535 6.39217 38.0221Z" fill="#111111"/>
<path d="M6.39217 21.1862C6.2965 21.4548 5.79896 21.5117 5.28088 21.3133C4.7628 21.1149 4.42036 20.7363 4.51603 20.4676C4.61169 20.199 5.10924 20.1421 5.62732 20.3405C6.1454 20.5389 6.48784 20.9176 6.39217 21.1862Z" fill="#111111"/>
<path d="M6.39217 35.7047C6.2965 35.9734 5.79896 36.0303 5.28088 35.8319C4.7628 35.6335 4.42036 35.2548 4.51603 34.9862C4.61169 34.7176 5.10924 34.6606 5.62732 34.8591C6.1454 35.0575 6.48784 35.4361 6.39217 35.7047Z" fill="#111111"/>
<path d="M9.33815 18.2731C9.54031 18.4682 9.25728 18.6543 8.706 18.6888C8.15472 18.7233 7.54393 18.5931 7.34177 18.398C7.13962 18.2029 7.42264 18.0168 7.97392 17.9823C8.52521 17.9479 9.13599 18.0781 9.33815 18.2731Z" fill="#111111"/>
<path d="M29.0803 16.4826C29.2825 16.6777 28.9995 16.8638 28.4482 16.8983C27.8969 16.9327 27.2861 16.8025 27.084 16.6075C26.8818 16.4124 27.1648 16.2263 27.7161 16.1918C28.2674 16.1573 28.8782 16.2875 29.0803 16.4826Z" fill="#111111"/>
<path d="M25.0803 16.8752C25.2825 17.0703 24.9995 17.2564 24.4482 17.2908C23.8969 17.3253 23.2861 17.1951 23.084 17C22.8818 16.805 23.1648 16.6189 23.7161 16.5844C24.2674 16.5499 24.8782 16.6801 25.0803 16.8752Z" fill="#111111"/>
<path d="M21.0803 17.2277C21.2825 17.4228 20.9995 17.6089 20.4482 17.6434C19.8969 17.6779 19.2861 17.5477 19.084 17.3526C18.8818 17.1575 19.1648 16.9714 19.7161 16.9369C20.2674 16.9025 20.8782 17.0327 21.0803 17.2277Z" fill="#111111"/>
<path d="M17.0803 17.6208C17.2825 17.8159 16.9995 18.002 16.4482 18.0364C15.8969 18.0709 15.2861 17.9407 15.084 17.7456C14.8818 17.5506 15.1648 17.3645 15.7161 17.33C16.2674 17.2955 16.8782 17.4257 17.0803 17.6208Z" fill="#111111"/>
<path d="M13.0803 17.9328C13.2825 18.1279 12.9995 18.314 12.4482 18.3484C11.8969 18.3829 11.2861 18.2527 11.084 18.0576C10.8818 17.8626 11.1648 17.6765 11.7161 17.642C12.2674 17.6075 12.8782 17.7377 13.0803 17.9328Z" fill="#111111"/>
</g>
<defs>
<linearGradient id="paint0_linear_1777_878" x1="23.5" y1="19.185" x2="24.5889" y2="41.1231" gradientUnits="userSpaceOnUse">
<stop offset="0.0247017" stop-color="#E8BE97"/>
<stop offset="0.0523978" stop-color="#DAAE86"/>
<stop offset="1" stop-color="#DAAE86"/>
</linearGradient>
<linearGradient id="paint1_linear_1777_878" x1="6.87249" y1="19.335" x2="9.30347" y2="14.3118" gradientUnits="userSpaceOnUse">
<stop stop-color="#C49972"/>
<stop offset="0.0677083" stop-color="#E8BE97"/>
<stop offset="1" stop-color="#E8BE97"/>
</linearGradient>
<linearGradient id="paint2_linear_1777_878" x1="-0.000319825" y1="38.471" x2="11.1271" y2="38.471" gradientUnits="userSpaceOnUse">
<stop stop-color="#C49972"/>
<stop offset="0.947917" stop-color="#C49972"/>
<stop offset="1" stop-color="#DAAE86"/>
</linearGradient>
<clipPath id="clip0_1777_878">
<rect width="36" height="28" fill="white" transform="translate(0 14)"/>
</clipPath>
</defs>
</svg>
